<?xml version="1.0" standalone="no"?>
<!DOCTYPE svg PUBLIC "-//W3C//DTD SVG 20010904//EN"
 "http://www.w3.org/TR/2001/REC-SVG-20010904/DTD/svg10.dtd">
<svg version="1.0" xmlns="http://www.w3.org/2000/svg"
 width="260.000000pt" height="260.000000pt" viewBox="0 0 260.000000 260.000000"
 preserveAspectRatio="xMidYMid meet">
<metadata>
Created by potrace 1.11, written by Peter Selinger 2001-2013
</metadata>
<g transform="translate(0.000000,260.000000) scale(0.100000,-0.100000)"
fill="#000000" stroke="none">
<path d="M1805 2010 c-199 -31 -339 -121 -404 -260 -23 -49 -26 -67 -26 -170
0 -105 2 -120 28 -171 66 -135 184 -201 497 -279 142 -36 198 -58 228 -91 46
-49 14 -116 -64 -138 -61 -17 -153 -13 -200 8 -43 20 -94 76 -94 104 0 15 -22
17 -216 17 l-217 0 6 -50 c13 -108 88 -221 196 -295 124 -85 278 -122 466
-112 199 11 352 66 449 161 91 88 133 202 123 336 -6 88 -31 153 -82 208 -78
87 -175 132 -429 198 -185 49 -240 73 -262 117 -12 23 -13 32 -2 54 21 43 53
54 146 50 94 -4 125 -20 155 -80 l19 -37 210 0 210 0 -7 43 c-3 23 -24 79 -46
124 -60 125 -163 206 -315 248 -71 19 -283 28 -369 15z"/>
<path d="M0 1295 l0 -685 225 0 225 0 0 218 0 218 49 55 c43 47 51 52 63 39 8
-8 83 -131 167 -272 l154 -258 264 0 c208 0 263 3 257 13 -4 6 -126 198 -271
424 -146 227 -263 416 -261 421 1 4 121 120 266 257 l263 250 -258 3 -258 3
-217 -223 -217 -223 -1 223 0 222 -225 0 -225 0 0 -685z"/>
</g>
</svg>
